HIERARCHY
ROOT Hips
{
	OFFSET -14.64140 90.27770 -84.91600
	CHANNELS 6 Xposition Yposition Zposition Zrotation Xrotation Yrotation
	JOINT Spine
	{
		OFFSET 0.00000 13.20850 -1.60436
		CHANNELS 3 Zrotation Xrotation Yrotation
		JOINT Spine1
		{
			OFFSET 0.00000 8.61716 0.00000
			CHANNELS 3 Zrotation Xrotation Yrotation
			JOINT Spine2
			{
				OFFSET 0.00000 8.61717 0.00000
				CHANNELS 3 Zrotation Xrotation Yrotation
				JOINT Spine3
				{
					OFFSET 0.00000 8.61717 0.00000
					CHANNELS 3 Zrotation Xrotation Yrotation
					JOINT Neck
					{
						OFFSET 0.00000 11.07920 1.10792
						CHANNELS 3 Zrotation Xrotation Yrotation
						JOINT Neck1
						{
							OFFSET 0.00000 7.08032 0.00000
							CHANNELS 3 Zrotation Xrotation Yrotation
							JOINT Head
							{
								OFFSET 0.00000 7.08031 0.00000
								CHANNELS 3 Zrotation Xrotation Yrotation
								End site
								{
									OFFSET 0.00000 0.00000 0.00000
								}
							}
						}
					}
					JOINT RightShoulder
					{
						OFFSET -0.01000 7.91373 5.19711
						CHANNELS 3 Zrotation Xrotation Yrotation
						JOINT RightArm
						{
							OFFSET -18.41580 0.00000 0.00000
							CHANNELS 3 Zrotation Xrotation Yrotation
							JOINT RightForeArm
							{
								OFFSET -29.11090 0.00000 0.00000
								CHANNELS 3 Zrotation Xrotation Yrotation
								JOINT RightHand
								{
									OFFSET -24.65040 0.00000 0.00000
									CHANNELS 3 Zrotation Xrotation Yrotation
									JOINT RightHandThumb1
									{
										OFFSET -5.35114 -0.85590 3.97906
										CHANNELS 3 Zrotation Xrotation Yrotation
										JOINT RightHandThumb2
										{
											OFFSET -4.52789 0.00000 0.00000
											CHANNELS 3 Zrotation Xrotation Yrotation
											JOINT RightHandThumb3
											{
												OFFSET -2.46976 0.00000 0.00000
												CHANNELS 3 Zrotation Xrotation Yrotation
												End site
												{
													OFFSET 0.00000 0.00000 0.00000
												}
											}
										}
									}
									JOINT RightHandIndex1
									{
										OFFSET -14.26970 0.00000 2.88139
										CHANNELS 3 Zrotation Xrotation Yrotation
										JOINT RightHandIndex2
										{
											OFFSET -5.48836 0.00000 0.00000
											CHANNELS 3 Zrotation Xrotation Yrotation
											JOINT RightHandIndex3
											{
												OFFSET -3.01859 0.00000 0.00000
												CHANNELS 3 Zrotation Xrotation Yrotation
												End site
												{
													OFFSET 0.00000 0.00000 0.00000
												}
											}
										}
									}
									JOINT RightHandMiddle1
									{
										OFFSET -14.26970 0.00000 -0.09147
										CHANNELS 3 Zrotation Xrotation Yrotation
										JOINT RightHandMiddle2
										{
											OFFSET -6.17441 0.00000 0.00000
											CHANNELS 3 Zrotation Xrotation Yrotation
											JOINT RightHandMiddle3
											{
												OFFSET -3.56743 0.00000 0.00000
												CHANNELS 3 Zrotation Xrotation Yrotation
												End site
												{
													OFFSET 0.00000 0.00000 0.00000
												}
											}
										}
									}
									JOINT RightHandRing1
									{
										OFFSET -12.69180 0.00000 -3.06433
										CHANNELS 3 Zrotation Xrotation Yrotation
										JOINT RightHandRing2
										{
											OFFSET -5.62556 0.00000 0.00000
											CHANNELS 3 Zrotation Xrotation Yrotation
											JOINT RightHandRing3
											{
												OFFSET -3.56744 0.00000 0.00000
												CHANNELS 3 Zrotation Xrotation Yrotation
												End site
												{
													OFFSET 0.00000 0.00000 0.00000
												}
											}
										}
									}
									JOINT RightHandPinky1
									{
										OFFSET -11.11390 0.00000 -6.03719
										CHANNELS 3 Zrotation Xrotation Yrotation
										JOINT RightHandPinky2
										{
											OFFSET -4.52789 0.00000 0.00000
											CHANNELS 3 Zrotation Xrotation Yrotation
											JOINT RightHandPinky3
											{
												OFFSET -2.46976 0.00000 0.00000
												CHANNELS 3 Zrotation Xrotation Yrotation
												End site
												{
													OFFSET 0.00000 0.00000 0.00000
												}
											}
										}
									}
								}
							}
						}
					}
					JOINT LeftShoulder
					{
						OFFSET 0.01000 7.91373 5.19711
						CHANNELS 3 Zrotation Xrotation Yrotation
						JOINT LeftArm
						{
							OFFSET 18.41580 0.00000 0.00000
							CHANNELS 3 Zrotation Xrotation Yrotation
							JOINT LeftForeArm
							{
								OFFSET 29.11090 0.00000 0.00000
								CHANNELS 3 Zrotation Xrotation Yrotation
								JOINT LeftHand
								{
									OFFSET 24.65040 0.00000 0.00000
									CHANNELS 3 Zrotation Xrotation Yrotation
									JOINT LeftHandThumb1
									{
										OFFSET 5.35114 -0.85590 3.97906
										CHANNELS 3 Zrotation Xrotation Yrotation
										JOINT LeftHandThumb2
										{
											OFFSET 4.52789 0.00000 0.00000
											CHANNELS 3 Zrotation Xrotation Yrotation
											JOINT LeftHandThumb3
											{
												OFFSET 2.46977 0.00000 0.00000
												CHANNELS 3 Zrotation Xrotation Yrotation
												End site
												{
													OFFSET 0.00000 0.00000 0.00000
												}
											}
										}
									}
									JOINT LeftHandIndex1
									{
										OFFSET 14.26970 0.00000 2.88139
										CHANNELS 3 Zrotation Xrotation Yrotation
										JOINT LeftHandIndex2
										{
											OFFSET 5.48836 0.00000 0.00000
											CHANNELS 3 Zrotation Xrotation Yrotation
											JOINT LeftHandIndex3
											{
												OFFSET 3.01859 0.00000 0.00000
												CHANNELS 3 Zrotation Xrotation Yrotation
												End site
												{
													OFFSET 0.00000 0.00000 0.00000
												}
											}
										}
									}
									JOINT LeftHandMiddle1
									{
										OFFSET 14.26970 0.00000 -0.09147
										CHANNELS 3 Zrotation Xrotation Yrotation
										JOINT LeftHandMiddle2
										{
											OFFSET 6.17440 0.00000 0.00000
											CHANNELS 3 Zrotation Xrotation Yrotation
											JOINT LeftHandMiddle3
											{
												OFFSET 3.56744 0.00000 0.00000
												CHANNELS 3 Zrotation Xrotation Yrotation
												End site
												{
													OFFSET 0.00000 0.00000 0.00000
												}
											}
										}
									}
									JOINT LeftHandRing1
									{
										OFFSET 12.69180 0.00000 -3.06433
										CHANNELS 3 Zrotation Xrotation Yrotation
										JOINT LeftHandRing2
										{
											OFFSET 5.62556 0.00000 0.00000
											CHANNELS 3 Zrotation Xrotation Yrotation
											JOINT LeftHandRing3
											{
												OFFSET 3.56744 0.00000 0.00000
												CHANNELS 3 Zrotation Xrotation Yrotation
												End site
												{
													OFFSET 0.00000 0.00000 0.00000
												}
											}
										}
									}
									JOINT LeftHandPinky1
									{
										OFFSET 11.11390 0.00000 -6.03719
										CHANNELS 3 Zrotation Xrotation Yrotation
										JOINT LeftHandPinky2
										{
											OFFSET 4.52789 0.00000 0.00000
											CHANNELS 3 Zrotation Xrotation Yrotation
											JOINT LeftHandPinky3
											{
												OFFSET 2.46976 0.00000 0.00000
												CHANNELS 3 Zrotation Xrotation Yrotation
												End site
												{
													OFFSET 0.00000 0.00000 0.00000
												}
											}
										}
									}
								}
							}
						}
					}
					JOINT pCube4
					{
						OFFSET 0.00000 10.91090 1.10792
						CHANNELS 3 Zrotation Xrotation Yrotation
						End site
						{
							OFFSET 0.00000 0.00000 0.00000
						}
					}
				}
			}
		}
	}
	JOINT RightUpLeg
	{
		OFFSET -9.98441 0.00000 0.00000
		CHANNELS 3 Zrotation Xrotation Yrotation
		JOINT RightLeg
		{
			OFFSET 0.00000 -42.11790 0.00000
			CHANNELS 3 Zrotation Xrotation Yrotation
			JOINT RightFoot
			{
				OFFSET 0.00000 -45.00020 -0.00001
				CHANNELS 3 Zrotation Xrotation Yrotation
				JOINT RightForeFoot
				{
					OFFSET 0.00000 -3.74820 0.00000
					CHANNELS 3 Zrotation Xrotation Yrotation
					JOINT RightToeBase
					{
						OFFSET 0.00000 0.06325 14.43120
						CHANNELS 3 Zrotation Xrotation Yrotation
						End site
						{
							OFFSET 0.00000 0.00000 0.00000
						}
					}
				}
			}
		}
	}
	JOINT LeftUpLeg
	{
		OFFSET 9.98441 0.00000 0.00000
		CHANNELS 3 Zrotation Xrotation Yrotation
		JOINT LeftLeg
		{
			OFFSET 0.00000 -42.11800 0.00000
			CHANNELS 3 Zrotation Xrotation Yrotation
			JOINT LeftFoot
			{
				OFFSET 0.00000 -45.00070 0.00000
				CHANNELS 3 Zrotation Xrotation Yrotation
				JOINT LeftForeFoot
				{
					OFFSET 0.00000 -3.74824 0.00000
					CHANNELS 3 Zrotation Xrotation Yrotation
					JOINT LeftToeBase
					{
						OFFSET 0.00000 0.06325 14.43110
						CHANNELS 3 Zrotation Xrotation Yrotation
						End site
						{
							OFFSET 0.00000 0.00000 0.00000
						}
					}
				}
			}
		}
	}
}
MOTION
Frames: 4
Frame Time: 0.050000
0.02462714757223228 0.0020540904383192834 0.009165598153214752 -0.03760157839090819 -0.042682800965504815 -0.012323635490134724 -0.6645140336895486 2.639186792536007 -1.2945333481306769 -0.9066494567696934 3.731457001158425 0.3768795360697913 -1.1069201535718012 -1.1315513802278676 -0.46531261566099896 0.4837809751287599 0.16298134478069165 -0.7011888417424588 0.990278656201336 11.250148173883689 -3.291114199424948 0.1904056505984853 -1.6868705147981633 -9.30230645182544 1.3369303039702143 -18.20939747184203 -0.7986253800441725 -6.7913319639322465 2.446980474857717 -14.93197140705035 78.70181881513467 -1.5276910704023523 15.209902373762938 35.10332030267785 -0.9932355180584868 97.67705983548328 3.430268099217589 -0.0005806490905954469 -1.6833426241634277 4.5262701357356026 -0.12831119482340977 -1.6395446656947652 -0.007756951292097761 0.029023707100056237 -56.25330788438705 0.02555210291302177 0.02650724585089382 -56.2359086153299 -38.76035142709539 -0.041443557003461626 0.03946629659134574 -0.027195094849728468 0.018957012748519436 0.03168829849346653 -0.02032366670285639 -0.024222937161116596 0.006502415065107537 -36.67000863407556 -0.019232235578247384 -0.04010560454759078 0.00926929652949936 -0.043664912018121046 0.035431383187031845 0.0053435712908813035 -0.027700714644948055 0.03523433212769034 -19.80299988606592 0.018386806396399526 -0.04943033933843821 0.014854316897523133 0.006278543793760998 -0.026634650227189607 -0.023909294480122613 0.029178652705062206 -0.024685607919013402 24.077753006648244 -0.045603813743088244 -0.0014440812849696885 28.896977469669167 -0.03290365953960137 0.00490118782548576 28.913038892742385 -0.0022284054450262603 0.01226210051027786 5.3382820335292225 1.3670258860877724 11.921312101089455 -71.42667359274743 28.134837081824575 -7.331735573588363 -18.12758708249122 -3.4030159811585263 -85.0663607915006 -9.200779810010422 -4.5973455483821635 3.5225554072445235 -0.5208106317732804 0.05856216045245273 -8.149087266973966 0.02272131667178232 -0.013887523042548882 44.53288988295192 -0.02216240445094494 0.0032769268390140816 44.582688533152115 12.423660226698951 0.0332723177870053 -0.0005579810233360732 0.048415852714291316 -0.029143547976578713 -0.02583467562471634 -0.0073877073968106974 0.0007891816282900832 0.04199832834800079 11.134335534135072 0.032990839100522806 -0.029598578212539216 0.0410995622582391 0.04183185477800711 -0.01943190846264045 0.02187575415375431 -0.0006677549319973889 0.024720956429520324 4.8108293855320055 0.04490753258846828 -0.035429612464422534 -0.008794079028234049 -0.031873428920736684 -0.006310226971283934 0.015213506523799861 0.04307066334835254 -0.01638518200587621 -5.60438502841833 0.00686647510676506 0.033326858032837074 -6.738156684075977 0.011404764518323812 0.020866087253997797 -6.678373696489078 -0.037634641102831615 -0.046482941072027245 0.030452256374341194 0.04363649559796776 0.04684263260274828 8.012287749212922 3.5294154310535166 -19.268347948238244 0.012074250628828654 10.415654969405482 -0.012587914072796868 -5.633598461603141 -15.701838406034664 3.143286229693325 0.003851078913907581 0.0020571875955935695 -0.017586441904930073 -0.01693359959164417 4.716469319325176 0.003966641805952702 12.431841825386442 -8.213718109020412 6.87188853942774 0.034696179157580734 46.330735612201345 -0.03835607994777596 -4.275509929408245 -14.798332716209611 -3.877556826743765 0.04087793743622005 0.04276390207424731 -0.015168925720882437 -0.005518140369204713 -10.766661933029233 -0.008013649612273067 
0.03536619847030848 -0.025675986932509894 0.030890656977507314 0.027779425976901848 -0.034139444387890454 0.02856834529229918 -0.9354632704348171 2.5069470788588273 -1.2594539025906226 -0.9493295504809718 3.6754569835266353 0.36169163685033556 -1.1714593913359375 -1.1549839891770028 -0.4481262988280624 0.4453433520853341 0.0960170222156462 -0.6951913278190944 0.9607884515914645 11.243883874611447 -3.228255907871706 0.15177680610783317 -1.6933091327895875 -9.112254250644735 1.3370041724028492 -18.213951685548093 -0.8116149081559758 -6.691982093320159 2.4472272826154224 -14.848741712680807 77.78865441508515 -1.1611307917683789 15.618804784377256 30.577860490296896 -0.7743835748555667 99.64165614978054 3.008085017652822 0.0469571555686593 -1.3690894072579014 4.518165852861095 -0.1688830713558511 -1.6387586536379586 0.00933883790821894 0.026530081478970832 -56.19646742452905 0.020406633477398278 -0.04430372331060042 -56.21007227410614 -38.78048246759777 -0.008785714442443894 0.010056663915611636 0.03469434599670738 0.015508950684236942 -0.006543463192136441 -0.0029590306766071675 -0.02435144245173573 0.04783550701145245 -36.716664988854625 -0.0120344374691848 -0.003431176129550032 -0.039431626986806356 0.008918595141957822 -0.01642328159792288 -0.045438237280546696 0.00598158678152864 0.006080106717036321 -19.722804869846826 0.0016078690101854708 0.041052101711565876 -0.03826587789773705 0.040568390005131266 0.0021252141050783274 -0.023451396967920663 -0.007752180401286063 -0.004490914348416656 24.084105140762464 -0.006361917211667775 0.02435886688791629 28.88299228907466 -0.04171277198901911 -0.021384952828907594 28.82685354742026 0.03945442700814111 0.012047888141873568 5.156689454348612 1.3977930655815771 11.906688857905689 -71.10106579379327 29.073948370228646 -7.53984107966882 -13.225288094190265 -3.6645774807083717 -85.39006331499753 -9.34353870286674 -4.335623317334883 3.421373029614762 -0.5070406981462966 0.028420872786612268 -8.104830155935414 0.04853583170815926 -0.025604877999443058 44.609517685728704 -0.038261499159598415 -0.01481000830416839 44.61456452827505 12.432236494475314 0.024648874660004965 -0.01040635119120778 -0.02676499857690501 -0.031182376027392898 -0.04232316215389786 0.047959385759344886 -0.030756877549832567 -0.004215906020174054 11.09209814449706 0.04073889595537246 -0.040759517188483696 -0.040155508627354904 0.017417882576364105 -0.03167336003786821 0.037523830661897406 -0.028994793315900692 0.04696347317518844 4.781349848621787 -0.006244132674718175 0.01969351848850871 0.0022702763673289167 0.03770560684110371 -0.016561541730719248 -0.008114231027577112 -0.023323272464825212 0.023118758287052295 -5.5742410178864645 -0.008789651822602685 0.012320213484680521 -6.711940755580962 -0.0285398840496052 -0.02243509513687537 -6.720539383927824 0.02945711269320063 0.04168910747482309 0.00025637477582798825 0.007251502155195144 -0.008304694467861648 8.093868402488773 3.4916751762117366 -19.22806778597745 0.03739217057981478 10.36903174240349 0.017029127997391202 -5.575761762986823 -15.647864990881649 3.229615138470003 0.04496522468176157 0.007469455013909516 -0.027591740203502853 0.04662004769708902 4.682361252079899 -0.03135686752046123 12.501600239056284 -8.246788435349252 6.851376524499568 0.028975373914640355 46.399287809130776 -0.01680709889983386 -4.346139428499076 -14.774680410364233 -3.8498590058018003 0.022454754641246626 0.005517143581989355 0.03293252760097846 0.02882512610380653 -10.723000742348429 0.0034039124968967644 
-0.04126389077368839 -0.04456007521099278 -0.037247409219842896 -0.033774938499092556 -0.015606303763333041 0.017970001934264457 -1.0559336621905886 2.2942073293741427 -1.2112740558961073 -0.9696237138530803 3.61417798429672 0.42590432105777853 -1.1235560330191308 -1.23031357737942 -0.3576384360529259 0.2865033611864032 0.08657036386064224 -0.6572960616468283 0.9414301646775198 11.141408484827423 -3.1874046268025107 0.18303255434043775 -1.6141130234682368 -8.888257550996492 1.2157275047585532 -18.099293468742502 -0.7769506633598382 -6.6143050128783525 2.4769307951315285 -14.757590464994372 77.13049452353867 -0.46223164891477364 15.978946887871247 27.234660647018064 -0.8375907562833855 101.11327276586547 2.7538016179890965 0.07658669743172097 -1.050820062907202 4.513973048976165 -0.11752064696168828 -1.5808583738007913 0.0004639157578669993 0.04818999937016256 -56.22383893789161 -0.0020221682769332953 -0.004355976588791832 -56.203982673484546 -38.74440387871838 0.04980356570322414 0.04012028671770821 -0.0019094719459424685 0.01392360015420923 -0.028383150168128285 -0.003463111975071373 0.023625817229682242 -0.026236833182141733 -36.665009414165304 -0.02467428134982531 -0.037825953673906905 0.026432442464574674 0.00592777208404161 0.017158245645094224 0.04339363384740238 -0.016006309538686217 -0.017520202971970263 -19.73849052111786 0.04068117754322026 -0.011231254940658528 -0.03579856010691646 0.04389000745324131 -0.008737739553475562 -0.009370155999247762 0.019751131992070927 -0.003460575332542096 24.018706944563387 0.03049319480695106 -0.0416796907763655 28.834885153748704 0.003962832375663571 -0.024459474576523806 28.901943226838284 -0.011808897538605596 0.01680145748588447 5.15561695151194 1.3405526634672371 11.835540387687637 -70.89524180514368 29.860484423553686 -7.911872394135878 -10.165817251569925 -3.8067218168436563 -86.25824297622584 -9.44328224007387 -4.2153628948058754 3.187610970909668 -0.47601310905819855 0.07978998644734081 -8.15817596044175 0.0017988614985490013 -0.012724087537611353 44.529009043947994 -0.007345037994129279 -0.007704781745009744 44.5645771345699 12.441585850293137 -0.01724335449636199 0.004623638360614085 -0.008976112939441698 0.017397959268380933 0.04257370292718111 0.018778600537578703 0.0009139061584873742 0.012723838158429096 11.09969266613221 0.04480471555705463 -0.030207658125321883 0.004684872617352793 0.0021973396790637774 0.03247007535195791 0.023205580392465175 0.0016227150612170924 0.02253937800551332 4.807112566159983 -0.007301162791459938 0.04416069129905784 0.026775795382396855 0.02344764226568824 0.03053399039925058 -0.011439437613666115 0.02075819056978611 -0.03566960151878375 -5.559687015728286 -0.015238387181259562 -0.01858347841792662 -6.677136601930147 -0.043648712177238265 -0.016050448018214016 -6.726375870525911 -0.03390634977025575 -0.009550997883979057 -0.04243946319138573 0.024845692474954956 0.0010763289441981544 8.061085320524402 3.5162413593356936 -19.194915568581457 -0.022544809570352174 10.423858604796033 -0.003727999073662863 -5.637986314100124 -15.66163430709166 3.22504807642339 -0.009880298063484927 -0.01675567779998478 -0.014426435205253772 -0.0036179732517955944 4.715958330564399 0.015325042972673057 12.43766652036704 -8.222129224046 6.888284785380893 -0.002034537299479814 46.396395443856555 0.046316406447106336 -4.361332636717699 -14.720124251894916 -3.8838159498465665 -0.009172592182179907 -0.03992948592892914 0.010589840210662614 -0.030307709529845264 -10.724639175036108 0.017272863112679403 
0.040204152782592435 0.024472334273865137 0.03227726417843804 0.02176128809424105 0.0430816979049474 -0.025497088513099238 -1.233348255914575 2.143134330857552 -1.1977485591317374 -0.8856466155285494 3.6032950017511443 0.39406158193870205 -1.1979081520457753 -1.2456163688686241 -0.3735326995331021 0.23848456416472277 0.1290579197966034 -0.704156764566256 0.8965929372373896 11.197778489708774 -3.0235931761482986 0.19960229942527374 -1.5675004548923335 -8.613953236005031 1.2183592802995051 -18.015867844699404 -0.7545362704172448 -6.712619266265617 2.4726702187724205 -14.684530714089771 76.83927189391875 -0.217262192982818 16.830511067634685 25.22043617892104 -0.8235926088779061 101.95417874615978 2.6282697124667758 0.046884020650564025 -0.807904307511835 4.500551383544978 -0.08013010085269676 -1.565057997064571 -0.012384149552169807 -0.02829162773741858 -56.24961144638985 -0.008312357421178234 -0.01468290254489143 -56.2539145641414 -38.72541253944393 0.046667277724563826 -0.04030685072586635 -0.01703147222156666 0.012448918598522284 0.002395726075362954 0.02190325518840002 0.02584225569603751 -0.009552709991289057 -36.674501761244834 0.013587128336594576 0.017938436755178793 0.041793160396859284 -0.0021322316323131555 -0.044270476592798 -0.007398349925564876 0.023210965971672392 -0.01076879375151049 -19.734708880385575 0.0023609592421610943 -0.002565109635168839 0.03592464947720943 0.028768727735429427 -0.01837421800232628 0.03578695558445981 0.04662035256291427 -0.0428385035918333 24.10381471686663 -0.04809742096432687 0.03425888338420502 28.87429675166341 -0.0007103791719073302 0.049129499729011414 28.905856911409728 0.01718763624085055 -0.023189211731040205 5.211888140588949 1.402230723751371 11.859404244308644 -70.77867750179087 30.327856634721446 -8.15255992898913 -8.679130994569949 -3.8544548847562634 -87.49608828411874 -9.42434941647056 -4.143055517756374 3.008810310277385 -0.4493273473302106 0.029288443810513612 -8.139266950743162 -0.029620074124138276 -0.0012580595957290934 44.540318872237634 -0.03016845562361339 -0.0383136711816877 44.58029727973575 12.463434396426534 0.005509952334182831 -0.025028192490227905 0.03080479270979211 -0.029273047932066313 0.037380794304034286 -0.02281255888825774 0.04453992711107506 0.006092588103220235 11.119515668362983 0.001219696991376229 -0.006101235136106428 0.028078828862218436 -0.043326838126265595 0.025772375960678495 -0.020236291813429046 -0.019134746454543845 0.007616475875663385 4.738012824305804 0.017242420255344098 -0.010848769750374614 0.03922011122095212 -0.04089930847743925 -0.019357746381962096 -0.04160585238711125 0.03511278502585365 0.008163843620234557 -5.586227621480275 -0.030737649973321374 -0.0281692236585734 -6.749096329693243 -0.02493153946282737 0.040637870905855175 -6.693327091176672 -0.02699315819198785 0.005844926159657468 0.03663115380938371 0.01554868702864355 0.03533485852225994 8.04368866133612 3.500106641203448 -19.22459228463758 -0.026868168881628955 10.36300231421294 -0.03221393559818235 -5.660138059524211 -15.638468184153227 3.1714688449203217 0.024367407259428278 0.022072819197472265 0.048623802079599286 0.029856687995700397 4.689960681764983 -0.013835097382789268 12.50575620477915 -8.227462962102868 6.86694293962937 -0.003161038143575599 46.35277086236411 0.02447933919781556 -4.3201219814251495 -14.782873993469504 -3.8372374254821286 -0.02264896798217664 0.003971793099670496 -0.031021134153624893 0.012439613050377085 -10.745110505782062 0.0409174964836235 
